<?xml version="1.0" encoding="iso-8859-1"?>
<!-- Generator: Adobe Illustrator 19.0.0, SVG Export Plug-In . SVG Version: 6.00 Build 0)  -->
<svg version="1.1" id="Layer_1" xmlns="http://www.w3.org/2000/svg" xmlns:xlink="http://www.w3.org/1999/xlink" x="0px" y="0px"
	 viewBox="0 0 512 512" style="enable-background:new 0 0 512 512;" xml:space="preserve">
<circle style="fill:#285680;" cx="256" cy="256" r="256"/>
<path style="fill:#B0D3F0;" d="M256,476.69c-121.882,0-220.69-98.807-220.69-220.69S134.118,35.31,256,35.31
	S476.69,134.118,476.69,256C476.548,377.829,377.829,476.548,256,476.69z"/>
<g>
	<path style="fill:#285680;" d="M256,105.931c-4.873,0-8.828-3.946-8.828-8.819c0,0,0,0,0-0.009V70.621
		c0-4.873,3.955-8.828,8.828-8.828s8.828,3.955,8.828,8.828v26.483C264.828,101.976,260.882,105.931,256,105.931L256,105.931z"/>
	<path style="fill:#285680;" d="M256,450.207c-4.873,0-8.828-3.946-8.828-8.819c0,0,0,0,0-0.009v-26.483
		c0-4.873,3.955-8.828,8.828-8.828s8.828,3.955,8.828,8.828v26.483C264.828,446.252,260.882,450.207,256,450.207L256,450.207z"/>
	<path style="fill:#285680;" d="M256,450.207c-4.829,0.044-8.783-3.831-8.828-8.66c0-0.053,0-0.115,0-0.168
		c-0.035-1.156,0.212-2.313,0.706-3.354c0.45-1.068,1.077-2.048,1.854-2.913c3.54-3.266,8.995-3.266,12.535,0
		c0.777,0.856,1.404,1.845,1.854,2.913c0.45,1.059,0.689,2.207,0.706,3.354c0.044,4.829-3.831,8.783-8.66,8.828
		C256.115,450.207,256.053,450.207,256,450.207z"/>
	<path style="fill:#285680;" d="M163.31,104.254c-0.591,0.026-1.192-0.035-1.766-0.177c-0.538-0.106-1.068-0.256-1.589-0.441
		c-0.538-0.265-1.059-0.53-1.598-0.794c-0.459-0.353-0.9-0.742-1.315-1.148c-1.624-1.686-2.542-3.928-2.56-6.268
		c0.018-1.156,0.256-2.295,0.706-3.354c0.433-1.05,1.059-2.013,1.854-2.825c0.415-0.406,0.856-0.786,1.315-1.148l1.598-0.794
		c0.512-0.212,1.042-0.388,1.589-0.53c4.811-0.945,9.481,2.189,10.425,7c0.106,0.547,0.168,1.103,0.168,1.66
		c-0.018,2.339-0.936,4.582-2.56,6.268c-0.856,0.803-1.845,1.457-2.913,1.942C165.597,104.06,164.458,104.271,163.31,104.254z"/>
	<path style="fill:#285680;" d="M348.69,425.401c-2.357-0.026-4.608-0.98-6.268-2.648c-3.434-3.434-3.443-9.004-0.009-12.438
		c2.101-2.101,5.129-3.001,8.042-2.392c0.539,0.106,1.068,0.256,1.589,0.441c0.547,0.265,1.077,0.556,1.589,0.883
		c0.486,0.3,0.927,0.653,1.324,1.059c1.624,1.686,2.542,3.928,2.56,6.268c-0.018,0.565-0.071,1.121-0.185,1.677
		c-0.079,0.583-0.256,1.148-0.53,1.677c-0.177,0.539-0.441,1.05-0.794,1.501c-0.309,0.477-0.662,0.918-1.059,1.324
		C353.298,424.422,351.047,425.375,348.69,425.401z"/>
	<path style="fill:#285680;" d="M95.426,172.138c-2.313-0.044-4.52-0.962-6.179-2.56c-3.46-3.363-3.54-8.907-0.168-12.367
		c0.053-0.062,0.115-0.115,0.168-0.168c3.522-3.399,9.137-3.293,12.526,0.238c2.401,2.498,3.134,6.162,1.863,9.384
		c-0.486,1.068-1.148,2.057-1.951,2.913C100.017,171.22,97.766,172.138,95.426,172.138z"/>
	<path style="fill:#285680;" d="M416.565,357.517c-2.339,0-4.59-0.918-6.268-2.56c-0.821-0.839-1.483-1.827-1.942-2.913
		c-1.289-3.31-0.53-7.071,1.942-9.622c3.505-3.266,8.942-3.266,12.447,0c1.668,1.66,2.622,3.911,2.648,6.268
		c-0.009,1.156-0.247,2.295-0.706,3.354c-0.441,1.095-1.103,2.083-1.942,2.913C421.102,356.582,418.887,357.5,416.565,357.517z"/>
	<path style="fill:#285680;" d="M70.621,264.828c-2.339-0.035-4.573-0.945-6.268-2.56c-0.812-0.83-1.448-1.827-1.854-2.913
		c-0.945-2.136-0.945-4.573,0-6.709c0.424-1.077,1.059-2.066,1.854-2.913c3.434-3.46,9.022-3.487,12.482-0.053
		c1.686,1.668,2.631,3.946,2.613,6.321c-0.018,1.156-0.256,2.295-0.706,3.354c-0.406,1.095-1.042,2.083-1.854,2.913
		C75.193,263.874,72.96,264.792,70.621,264.828z"/>
	<path style="fill:#285680;" d="M441.379,264.828c-0.591-0.018-1.183-0.079-1.766-0.177c-0.556-0.097-1.086-0.274-1.589-0.53
		c-0.565-0.194-1.103-0.459-1.598-0.794c-0.441-0.353-0.883-0.706-1.315-1.059c-3.416-3.478-3.416-9.057,0-12.535
		c2.092-2.057,5.058-2.948,7.936-2.383c0.583,0.079,1.156,0.256,1.677,0.53c0.565,0.194,1.095,0.459,1.589,0.794
		c0.441,0.353,0.892,0.706,1.324,1.059c0.353,0.441,0.706,0.883,1.059,1.324c0.335,0.494,0.6,1.024,0.794,1.589
		c0.256,0.503,0.433,1.033,0.53,1.589c0.238,1.165,0.238,2.366,0,3.531c-0.088,0.556-0.274,1.095-0.53,1.589
		c-0.194,0.565-0.459,1.095-0.794,1.589c-0.353,0.441-0.706,0.883-1.059,1.324c-0.441,0.353-0.892,0.706-1.324,1.059
		c-0.494,0.335-1.024,0.6-1.589,0.794c-0.53,0.265-1.095,0.441-1.677,0.53C442.5,264.757,441.944,264.81,441.379,264.828z"/>
	<path style="fill:#285680;" d="M95.426,357.517c-1.156,0.026-2.304-0.212-3.354-0.706c-1.05-0.433-2.013-1.059-2.825-1.854
		c-3.46-3.434-3.487-9.013-0.053-12.482c2.092-2.11,5.094-3.028,8.007-2.436c0.583,0.097,1.148,0.274,1.677,0.53
		c0.53,0.194,1.042,0.468,1.501,0.794l1.315,1.059c3.416,3.478,3.416,9.057,0,12.535C100.008,356.582,97.766,357.5,95.426,357.517z"
		/>
	<path style="fill:#285680;" d="M416.565,172.138c-2.339,0-4.59-0.918-6.268-2.56c-0.821-0.839-1.483-1.827-1.942-2.913
		c-1.289-3.31-0.53-7.071,1.942-9.622c3.505-3.266,8.942-3.266,12.447,0c3.46,3.434,3.487,9.022,0.053,12.482
		C421.155,171.193,418.913,172.129,416.565,172.138z"/>
	<path style="fill:#285680;" d="M163.31,425.401c-0.591-0.018-1.183-0.079-1.766-0.177l-1.589-0.53
		c-0.538-0.265-1.059-0.53-1.598-0.794c-0.459-0.362-0.9-0.742-1.315-1.148c-3.416-3.443-3.416-8.995,0-12.447
		c0.397-0.406,0.839-0.759,1.315-1.059c0.512-0.327,1.042-0.627,1.598-0.883c0.512-0.185,1.05-0.335,1.589-0.441
		c1.713-0.344,3.487-0.194,5.12,0.441c1.077,0.486,2.057,1.139,2.913,1.942c1.624,1.686,2.542,3.928,2.56,6.268
		C172.067,421.42,168.157,425.331,163.31,425.401L163.31,425.401z"/>
	<path style="fill:#285680;" d="M348.69,104.254c-2.348,0.026-4.608-0.9-6.268-2.56c-1.642-1.668-2.56-3.919-2.56-6.268
		c-0.035-1.156,0.212-2.313,0.706-3.354c0.433-1.05,1.059-2.013,1.854-2.825c3.522-3.31,9.013-3.31,12.535,0
		c0.794,0.812,1.421,1.774,1.854,2.825c0.45,1.059,0.697,2.207,0.706,3.354c-0.018,0.591-0.071,1.183-0.185,1.766
		c-0.088,0.583-0.265,1.148-0.53,1.677c-0.194,0.53-0.459,1.042-0.794,1.501l-1.059,1.324
		C353.298,103.353,351.038,104.28,348.69,104.254z"/>
	<path style="fill:#285680;" d="M97.103,264.828H70.621c-4.873,0-8.828-3.955-8.828-8.828s3.955-8.828,8.828-8.828h26.483
		c4.873,0,8.828,3.955,8.828,8.828S101.976,264.828,97.103,264.828z"/>
	<path style="fill:#285680;" d="M441.379,264.828h-26.483c-4.873,0-8.828-3.955-8.828-8.828s3.955-8.828,8.828-8.828h26.483
		c4.873,0,8.828,3.955,8.828,8.828S446.252,264.828,441.379,264.828z"/>
</g>
<path style="fill:#D25627;" d="M273.655,236.314v-86.246c0-9.754-7.901-17.655-17.655-17.655s-17.655,7.901-17.655,17.655v86.246"/>
<path style="fill:#C03A2B;" d="M257.324,282.394h0.088L362.108,387.09c6.894,6.894,18.088,6.894,24.982,0
	c6.894-6.894,6.894-18.088,0-24.982l0,0L282.394,257.412"/>
<path style="fill:#FFFFFF;" d="M150.069,370.759c-4.873,0-8.828-3.955-8.828-8.828c0-2.339,0.927-4.582,2.586-6.241l87.217-87.217
	c3.443-3.443,9.039-3.443,12.482,0c3.443,3.443,3.443,9.039,0,12.482l-87.217,87.217
	C154.659,369.832,152.408,370.759,150.069,370.759z"/>
<circle style="fill:#2C2F38;" cx="256" cy="256" r="26.483"/>
<g>
</g>
<g>
</g>
<g>
</g>
<g>
</g>
<g>
</g>
<g>
</g>
<g>
</g>
<g>
</g>
<g>
</g>
<g>
</g>
<g>
</g>
<g>
</g>
<g>
</g>
<g>
</g>
<g>
</g>
</svg>
