<?xml version="1.0" encoding="iso-8859-1"?>
<!-- Generator: Adobe Illustrator 19.0.0, SVG Export Plug-In . SVG Version: 6.00 Build 0)  -->
<svg version="1.1" id="Capa_1" xmlns="http://www.w3.org/2000/svg" xmlns:xlink="http://www.w3.org/1999/xlink" x="0px" y="0px"
	 viewBox="0 0 448 448" style="enable-background:new 0 0 448 448;" xml:space="preserve">
<path style="fill:#F3E4FF;" d="M412.8,257.6l0.8-1.6c1.6-4.8,2.4-10.4,2.4-16c0-26.4-21.6-48-48-48c-7.2,0-13.6,1.6-19.2,4v-1.6
	c-13.6-56-64-98.4-124.8-98.4c-36.8,0-70.4,16-93.6,40.8l-0.8,0.8C120,131.2,108,128,96,128c-35.2,0-64,28.8-64,64
	c0,12.8,4,24.8,10.4,34.4l0.8,0.8C17.6,236,0,260,0,288c0,35.2,28.8,64,64,64h336c26.4,0,48-21.6,48-48
	C448,281.6,432.8,263.2,412.8,257.6z"/>
<path style="fill:#9F2BFB;" d="M208,280c-2.4,0-4-0.8-5.6-2.4l-16-16c-3.2-3.2-3.2-8,0-11.2s8-3.2,11.2,0l10.4,10.4l42.4-42.4
	c3.2-3.2,8-3.2,11.2,0s3.2,8,0,11.2l-48,48C212,279.2,210.4,280,208,280z"/>
<g>
</g>
<g>
</g>
<g>
</g>
<g>
</g>
<g>
</g>
<g>
</g>
<g>
</g>
<g>
</g>
<g>
</g>
<g>
</g>
<g>
</g>
<g>
</g>
<g>
</g>
<g>
</g>
<g>
</g>
</svg>
