<?xml version="1.0"?>
<svg xmlns="http://www.w3.org/2000/svg" xmlns:xlink="http://www.w3.org/1999/xlink" version="1.1" id="Layer_1" x="0px" y="0px" viewBox="0 0 512 512" style="enable-background:new 0 0 512 512;" xml:space="preserve" width="512px" height="512px" class=""><g><path style="fill:#145587" d="M28.743,111.367h13.353c6.629,0,12.81-3.347,16.433-8.9l18.782-28.782  c3.996-6.124,10.814-9.816,18.127-9.816h90.787c7.313,0,14.131,3.693,18.127,9.816l18.781,28.783c3.623,5.552,9.804,8.9,16.433,8.9  h243.691c11.372,0,20.59,9.218,20.59,20.59v257.619c0,11.372-9.218,20.59-20.59,20.59H28.743c-11.372,0-20.59-9.218-20.59-20.59  v-257.62C8.153,120.585,17.371,111.367,28.743,111.367z" data-original="#145587" class="active-path"/><path style="fill:#FFFFFF;" d="M456.115,149.332H55.884c-8.15,0-14.757,6.607-14.757,14.757v172.76  c0,8.15,6.607,14.756,14.757,14.756h400.231c8.15,0,14.757-6.606,14.757-14.756v-172.76  C470.872,155.939,464.264,149.332,456.115,149.332z" data-original="#FFFFFF"/><rect x="8.153" y="171.895" style="opacity:0.2;fill:#145587;enable-background:new    ;" width="495.694" height="107.259"/><path style="fill:#89BBE4;" d="M28.743,190.662h139.943c7.015,0,13.807-2.467,19.186-6.968l32.74-27.393  c5.38-4.501,12.172-6.968,19.185-6.968h243.459c11.372,0,20.59,9.219,20.59,20.59v257.619c0,11.372-9.218,20.59-20.59,20.59H28.743  c-11.372,0-20.59-9.218-20.59-20.59v-216.29C8.153,199.88,17.371,190.662,28.743,190.662z" data-original="#89BBE4" class=""/><rect x="8.153" y="397.664" style="fill:#89BBE4" width="495.694" height="16.306" data-original="#F9C526" class="" data-old_color="#F9C526"/><path d="M483.257,103.214H239.566c-3.889,0-7.48-1.945-9.605-5.202L211.179,69.23c-5.521-8.462-14.85-13.514-24.954-13.514H95.437  c-10.104,0-19.433,5.053-24.954,13.514L51.701,98.012c-2.126,3.258-5.717,5.202-9.605,5.202H28.743  C12.893,103.214,0,116.108,0,131.957v295.585c0,15.849,12.893,28.743,28.743,28.743h454.515c15.849,0,28.743-12.893,28.743-28.743  V131.957C512,116.108,499.107,103.214,483.257,103.214z M495.694,427.542c0,6.858-5.58,12.437-12.437,12.437H28.743  c-6.858,0-12.437-5.579-12.437-12.437v-216.29c0-6.858,5.579-12.437,12.437-12.437h139.943c8.912,0,17.583-3.149,24.418-8.868  l32.74-27.393c3.906-3.268,8.862-5.068,13.953-5.068h243.459c6.858,0,12.437,5.58,12.437,12.437v257.619H495.694z M495.694,144.012  c-3.766-1.814-7.984-2.833-12.437-2.833h-243.46c-8.912,0-17.583,3.15-24.417,8.868l-32.74,27.393  c-3.906,3.268-8.862,5.068-13.954,5.068H28.743c-4.453,0-8.671,1.017-12.437,2.833v-53.385c0-6.858,5.579-12.437,12.437-12.437  h13.353c9.418,0,18.113-4.709,23.261-12.597l18.782-28.783c2.5-3.832,6.723-6.119,11.299-6.119h90.787  c4.574,0,8.799,2.287,11.299,6.119l18.781,28.782c5.146,7.888,13.842,12.597,23.261,12.597h243.691  c6.858,0,12.437,5.579,12.437,12.437v12.058H495.694z" data-original="#000000" class="" style="fill:#000000"/></g> </svg>
