<svg viewBox="-48 0 512 512.001" xmlns="http://www.w3.org/2000/svg"><path d="m353.457031 10.238281c-2.527343-6.191406-8.550781-10.238281-15.238281-10.238281-11.464844 0-249.785156 0-261.25 0-6.6875 0-12.710938 4.046875-15.238281 10.238281l-41.953125 102.75h375.632812zm0 0" fill="#49ae3a"/><path d="m312.527344 112.988281v-40.210937c0-8.957032-7.328125-16.285156-16.28125-16.285156h-177.300782c-8.957031 0-16.285156 7.328124-16.285156 16.285156v40.210937zm0 0" fill="#1d9942"/><path d="m97.574219 0c-11.328125 0-18.796875 0-20.605469 0-6.6875 0-12.710938 4.046875-15.234375 10.238281l-41.957031 102.75h20.605468l41.953126-102.75c2.527343-6.191406 8.550781-10.238281 15.238281-10.238281zm0 0" fill="#1d9942"/><path d="m312.527344 112.988281v-40.210937c0-8.957032-7.328125-16.285156-16.28125-16.285156h-177.300782c-8.957031 0-16.285156 7.328124-16.285156 16.285156v40.210937zm0 0" fill="#1d9942"/><path d="m139.550781 56.492188h-20.605469c-8.957031 0-16.285156 7.328124-16.285156 16.285156v40.210937h20.605469v-40.210937c0-8.957032 7.328125-16.285156 16.285156-16.285156zm0 0" fill="#158732"/><path d="m207.59375 150.621094h-179.636719l41.949219 338.542968c1.613281 13.046876 12.609375 22.835938 25.640625 22.835938h224.09375c13.03125 0 24.027344-9.789062 25.644531-22.835938l41.945313-338.542968zm0 0" fill="#e0e0de"/><path d="m90.507812 489.164062-41.945312-338.542968h-20.605469l41.949219 338.542968c1.613281 13.046876 12.609375 22.835938 25.640625 22.835938h20.605469c-13.03125 0-24.027344-9.789062-25.644532-22.835938zm0 0" fill="#d3d3cf"/><path d="m67.476562 469.574219 2.429688 19.59375c1.617188 13.042969 12.609375 22.832031 25.644531 22.832031h224.089844c13.03125 0 24.027344-9.789062 25.644531-22.832031l2.425782-19.59375zm0 0" fill="#d3d3cf"/><path d="m90.507812 489.164062-2.425781-19.589843h-20.605469c2.660157 21.457031 2.492188 20.402343 2.839844 21.996093 2.585938 11.828126 13.015625 20.429688 25.234375 20.429688h20.605469c-13.035156 0-24.03125-9.789062-25.648438-22.835938zm0 0" fill="#c6c6c4"/><path d="m407.066406 112.113281h-398.945312c-4.484375 0-8.121094 3.714844-8.121094 8.296875v24.988282c0 4.582031 3.636719 8.296874 8.121094 8.296874h398.945312c4.484375 0 8.121094-3.714843 8.121094-8.296874v-24.988282c0-4.582031-3.636719-8.296875-8.121094-8.296875zm0 0" fill="#ededed"/><path d="m407.066406 133.777344h-398.945312c-4.484375 0-8.121094-3.714844-8.121094-8.296875v19.917969c0 4.582031 3.636719 8.296874 8.121094 8.296874h398.945312c4.484375 0 8.121094-3.714843 8.121094-8.296874v-19.917969c0 4.582031-3.636719 8.296875-8.121094 8.296875zm0 0" fill="#e0e0de"/><path d="m174.15625 366.949219h-36.699219l11.628907-20.5c9.652343 4.566406 20.835937-3.449219 19.214843-14.277344l-2.859375-19.113281c-.640625-9.324219-10.140625-15.019532-18.546875-11.714844l-19.027343 7.472656c-6.976563 2.742188-10.410157 10.617188-7.667969 17.59375 1.09375 2.789063 3.019531 5 5.371093 6.488282l-13.78125 24.296874c-9.34375 16.464844 2.535157 36.898438 21.488282 36.898438h40.878906c7.492188 0 13.570312-6.074219 13.570312-13.570312 0-7.492188-6.078124-13.574219-13.570312-13.574219zm0 0" fill="#49ae3a"/><path d="m303.421875 357.238281-19.222656-34.191406c-3.667969-6.535156-11.949219-8.851563-18.476563-5.179687-6.535156 3.671874-8.855468 11.949218-5.179687 18.480468l17.203125 30.601563h-24.429688c-.164062-2.683594-1.113281-5.347657-2.917968-7.609375-4.664063-5.863282-13.203126-6.835938-19.066407-2.167969l-15.988281 12.71875c-4.4375 3.53125-5.453125 9.496094-5.121094 10.621094-.230468 2.582031 1.207032 7.484375 5.101563 10.601562l.011719.007813 15.988281 12.742187c8.585937 6.84375 21.324219 1.152344 21.992187-9.773437h28.585938c18.976562.003906 30.816406-20.464844 21.519531-36.851563zm0 0" fill="#49ae3a"/><path d="m252.296875 252.148438c-2.769531-.417969-5.472656.035156-7.832031 1.160156l-15.382813-27.121094c-9.414062-16.59375-33.484375-16.75-43.023437.074219l-22.730469 40.667969c-3.660156 6.539062-1.320313 14.808593 5.222656 18.464843 6.539063 3.65625 14.8125 1.320313 18.464844-5.222656l19.054687-34.089844c.675782-1.203125 2.40625-1.210937 3.089844-.007812l11.792969 20.785156c-2.636719 1.675781-4.730469 4.253906-5.722656 7.539063-2.0625 6.824218 1.757812 14.058593 8.386719 16.671874l18.648437 7.339844c8.5 3.347656 17.929687-2.464844 18.558594-11.714844l2.875-19.109374c1.113281-7.410157-3.988281-14.320313-11.402344-15.4375zm0 0" fill="#49ae3a"/><g fill="#1d9942"><path d="m132.546875 357.191406 12.273437-21.636718c.792969-1.402344.578126-3.183594-.589843-4.289063-1.640625-1.554687-2.925781-3.550781-3.640625-5.910156-2.0625-6.828125 1.761718-14.074219 8.402344-16.683594l12.027343-4.722656c-3.679687-3.320313-9.09375-4.585938-14.125-2.605469l-18.65625 7.328125c-6.644531 2.609375-10.472656 9.855469-8.40625 16.683594.992188 3.289062 3.09375 5.871093 5.734375 7.542969l-13.78125 24.292968c-9.339844 16.46875 2.539063 36.902344 21.492188 36.902344h20.761718c-18.957031 0-30.835937-20.433594-21.492187-36.902344zm0 0"/><path d="m294.035156 358.996094-12.734375-22.648438c-2.847656-5.066406-2.078125-11.175781 1.453125-15.375-4.109375-4.90625-11.253906-6.355468-17.03125-3.105468-6.535156 3.671874-8.851562 11.949218-5.179687 18.480468l17.203125 30.601563h11.636718c4.082032 0 6.652344-4.394531 4.652344-7.953125zm0 0"/><path d="m236.09375 391.125-.007812-.007812c-3.894532-3.117188-5.332032-8.019532-5.101563-10.605469-.335937-1.125.683594-7.085938 5.117187-10.617188l13.871094-11.039062c-4.746094-5.414063-12.949218-6.214844-18.640625-1.683594l-15.988281 12.722656c-4.4375 3.53125-5.453125 9.492188-5.121094 10.617188-.230468 2.585937 1.207032 7.488281 5.101563 10.605469l.011719.007812 15.988281 12.742188c5.6875 4.53125 13.898437 3.742187 18.648437-1.679688zm0 0"/><path d="m184.085938 266.929688 22.734374-40.664063c2.742188-4.84375 6.695313-8.273437 11.152344-10.3125-10.988281-5.027344-25.125-1.660156-31.914062 10.3125l-22.730469 40.664063c-3.660156 6.542968-1.320313 14.808593 5.222656 18.464843 5.777344 3.230469 12.902344 1.777344 17.003907-3.117187-3.523438-4.191406-4.300782-10.285156-1.46875-15.347656zm0 0"/><path d="m244.378906 291.070312c-6.632812-2.609374-10.449218-9.847656-8.390625-16.671874.609375-2.019532 1.640625-3.773438 2.953125-5.214844 1.519532-1.664063 1.761719-4.132813.660156-6.097656l-8.226562-14.726563c-3.902344-6.980469-13.03125-8.980469-19.496094-4.269531l-2.71875 1.984375 11.792969 20.789062c-2.632813 1.671875-4.730469 4.25-5.722656 7.539063-2.0625 6.820312 1.757812 14.058594 8.386719 16.667968l18.652343 7.34375c5.078125 1.996094 10.472657.710938 14.140625-2.609374zm0 0"/></g></svg>