<svg viewBox="0 0 512 512" xmlns="http://www.w3.org/2000/svg" xmlns:xlink="http://www.w3.org/1999/xlink"><linearGradient id="a" gradientTransform="matrix(1 0 0 -1 0 -12310)" gradientUnits="userSpaceOnUse" x1="0" x2="512" y1="-12566" y2="-12566"><stop offset="0" stop-color="#00f1ff"/><stop offset=".231" stop-color="#00d8ff"/><stop offset=".5138" stop-color="#00c0ff"/><stop offset=".7773" stop-color="#00b2ff"/><stop offset="1" stop-color="#00adff"/></linearGradient><path d="m512 256c0 141.386719-114.613281 256-256 256s-256-114.613281-256-256 114.613281-256 256-256 256 114.613281 256 256zm0 0" fill="url(#a)"/><g fill="#fff"><path d="m369.730469 245.152344h-49.113281c-29.648438 0-53.769532-24.121094-53.769532-53.769532v-49.113281c0-29.648437 24.121094-53.769531 53.769532-53.769531h49.113281c29.648437 0 53.769531 24.121094 53.769531 53.769531v49.113281c0 29.648438-24.121094 53.769532-53.769531 53.769532zm-49.113281-126.652344c-13.105469 0-23.769532 10.664062-23.769532 23.769531v49.113281c0 13.105469 10.664063 23.769532 23.769532 23.769532h49.113281c13.105469 0 23.769531-10.664063 23.769531-23.769532v-49.113281c0-13.105469-10.664062-23.769531-23.769531-23.769531zm0 0"/><path d="m191.382812 245.152344h-49.113281c-29.648437 0-53.769531-24.121094-53.769531-53.769532v-49.113281c0-29.648437 24.121094-53.769531 53.769531-53.769531h49.113281c29.648438 0 53.769532 24.121094 53.769532 53.769531v49.113281c0 29.648438-24.121094 53.769532-53.769532 53.769532zm-49.113281-126.652344c-13.105469 0-23.769531 10.664062-23.769531 23.769531v49.113281c0 13.105469 10.664062 23.769532 23.769531 23.769532h49.113281c13.105469 0 23.769532-10.664063 23.769532-23.769532v-49.113281c0-13.105469-10.664063-23.769531-23.769532-23.769531zm0 0"/><path d="m191.382812 423.5h-49.113281c-29.648437 0-53.769531-24.121094-53.769531-53.769531v-49.113281c0-29.648438 24.121094-53.769532 53.769531-53.769532h49.113281c29.648438 0 53.769532 24.121094 53.769532 53.769532v49.113281c0 29.648437-24.121094 53.769531-53.769532 53.769531zm-49.113281-126.652344c-13.105469 0-23.769531 10.664063-23.769531 23.769532v49.113281c0 13.105469 10.664062 23.769531 23.769531 23.769531h49.113281c13.105469 0 23.769532-10.664062 23.769532-23.769531v-49.113281c0-13.105469-10.664063-23.769532-23.769532-23.769532zm0 0"/><path d="m369.730469 423.5h-49.113281c-29.648438 0-53.769532-24.121094-53.769532-53.769531v-49.113281c0-29.648438 24.121094-53.769532 53.769532-53.769532h49.113281c21.371093 0 40.71875 12.65625 49.28125 32.242188 3.320312 7.589844-.144531 16.433594-7.734375 19.753906-7.589844 3.316406-16.433594-.144531-19.75-7.734375-3.789063-8.664063-12.34375-14.261719-21.796875-14.261719h-49.109375c-13.109375 0-23.773438 10.664063-23.773438 23.769532v49.113281c0 13.105469 10.664063 23.769531 23.773438 23.769531h49.109375c13.105469 0 23.769531-10.664062 23.769531-23.769531 0-8.285157 6.71875-15 15-15 8.285156 0 15 6.714843 15 15 0 29.648437-24.121094 53.769531-53.769531 53.769531zm0 0"/></g></svg>