<?xml version="1.0" encoding="iso-8859-1"?>
<!-- Generator: Adobe Illustrator 19.0.0, SVG Export Plug-In . SVG Version: 6.00 Build 0)  -->
<svg version="1.1" id="Layer_1" xmlns="http://www.w3.org/2000/svg" xmlns:xlink="http://www.w3.org/1999/xlink" x="0px" y="0px"
	 viewBox="0 0 511.999 511.999" style="enable-background:new 0 0 511.999 511.999;" xml:space="preserve">
<circle style="fill:#3A4DE3;" cx="255.999" cy="255.996" r="255.996"/>
<path style="fill:#1C2EDE;" d="M509.837,289.381L284.328,60.702H228.73v118.573l-49.093-53.834
	c-28.124,14.079-51.871,35.599-68.673,62.237c-17.287,27.405-26.423,59.09-26.423,91.628c0,49.67,21.171,94.479,54.955,125.904
	l106.578,106.578c3.296,0.125,6.603,0.21,9.928,0.21C386.074,512,493.478,414.993,509.837,289.381z"/>
<g>
	<rect x="228.728" y="60.697" style="fill:#FFFFFF;" width="55.598" height="173.022"/>
	<path style="fill:#FFFFFF;" d="M402.094,187.68c-16.802-26.638-40.549-48.16-68.673-62.238l-19.768,39.492
		c43.609,21.829,70.7,65.655,70.7,114.374c0,70.483-57.342,127.825-127.824,127.825c-70.483,0-127.824-57.342-127.824-127.825
		c0-48.719,27.091-92.543,70.7-114.374l-19.768-39.492c-28.124,14.079-51.871,35.6-68.673,62.238
		c-17.287,27.405-26.423,59.089-26.423,91.628c0,94.835,77.153,171.99,171.988,171.99s171.988-77.154,171.988-171.99
		C428.517,246.769,419.381,215.085,402.094,187.68z"/>
</g>
<g>
	<rect x="256.532" y="60.697" style="fill:#E1E1E3;" width="27.799" height="173.022"/>
	<path style="fill:#E1E1E3;" d="M428.517,279.308c0-32.539-9.136-64.223-26.423-91.628c-16.802-26.638-40.549-48.16-68.673-62.237
		l-19.768,39.492c43.609,21.829,70.7,65.655,70.7,114.373c0,70.483-57.342,127.826-127.824,127.826l0,0v44.164l0,0
		C351.364,451.297,428.517,374.143,428.517,279.308z"/>
</g>
<g>
</g>
<g>
</g>
<g>
</g>
<g>
</g>
<g>
</g>
<g>
</g>
<g>
</g>
<g>
</g>
<g>
</g>
<g>
</g>
<g>
</g>
<g>
</g>
<g>
</g>
<g>
</g>
<g>
</g>
</svg>
