<?xml version="1.0" encoding="iso-8859-1"?>
<!-- Generator: Adobe Illustrator 19.0.0, SVG Export Plug-In . SVG Version: 6.00 Build 0)  -->
<svg version="1.1" id="Layer_1" xmlns="http://www.w3.org/2000/svg" xmlns:xlink="http://www.w3.org/1999/xlink" x="0px" y="0px"
	 viewBox="0 0 512 512" style="enable-background:new 0 0 512 512;" xml:space="preserve">
<path style="fill:#A3A6AA;" d="M500.101,211.477c-1.163-6.862-7.66-11.198-14.441-9.645l-42.456,9.71
	c-4.84-20.456-12.949-39.645-23.739-56.991l36.834-23.279c5.878-3.709,7.376-11.388,3.337-17.05c0,0-6.331-11.616-28.285-33.566
	c-21.952-21.956-34.229-28.744-34.229-28.744c-5.676-4.027-13.334-2.499-17.033,3.394l-23.164,36.9
	c-17.382-10.731-36.595-18.782-57.069-23.553l9.577-42.478c1.532-6.784-2.829-13.272-9.69-14.42c0,0-12.692-3.737-43.741-3.737
	s-44.53,3.883-44.53,3.883c-6.856,1.163-11.198,7.661-9.645,14.442l9.713,42.46c-20.454,4.838-39.642,12.944-56.99,23.734
	l-23.277-36.832c-3.715-5.877-11.389-7.38-17.05-3.343c0,0-11.618,6.335-33.574,28.288c-21.952,21.953-28.74,34.233-28.74,34.233
	c-4.025,5.67-2.5,13.338,3.393,17.034l36.906,23.161c-10.731,17.383-18.779,36.595-23.553,57.07l-42.48-9.579
	c-6.783-1.529-13.27,2.833-14.418,9.692c0,0-3.737,12.692-3.737,43.744c0,31.046,3.882,44.527,3.882,44.527
	c1.165,6.856,7.662,11.198,14.444,9.645l42.458-9.713c4.838,20.457,12.946,39.642,23.736,56.991L55.703,380.73
	c-5.878,3.716-7.38,11.388-3.34,17.053c0,0,6.331,11.613,28.287,33.573c21.952,21.951,34.23,28.737,34.23,28.737
	c5.673,4.027,13.337,2.501,17.034-3.391l23.162-36.904c17.38,10.734,36.594,18.781,57.068,23.556l-9.577,42.475
	c-1.532,6.784,2.833,13.272,9.693,14.417c0,0,12.689,3.74,43.741,3.737c31.046,0,44.527-3.88,44.527-3.88
	c6.858-1.163,11.199-7.661,9.645-14.442l-9.713-42.456c20.458-4.838,39.645-12.949,56.993-23.735l23.277,36.826
	c3.712,5.883,11.387,7.381,17.05,3.34c0,0,11.615-6.329,33.571-28.285c21.952-21.953,28.74-34.23,28.74-34.23
	c4.025-5.674,2.501-13.331-3.391-17.031l-36.904-23.164c10.732-17.38,18.782-36.595,23.555-57.069l42.478,9.576
	c6.781,1.535,13.269-2.833,14.415-9.692c0,0,3.737-12.689,3.737-43.738C503.984,224.958,500.101,211.477,500.101,211.477z
	 M256.001,313.463c-31.735,0-57.459-25.725-57.459-57.459c0-31.735,25.724-57.459,57.459-57.459
	c31.737,0,57.462,25.724,57.462,57.459C313.463,287.739,287.739,313.463,256.001,313.463z"/>
<path style="fill:#394049;" d="M256.001,161.519c-52.182,0-94.484,42.304-94.484,94.485s42.301,94.485,94.484,94.485
	s94.485-42.304,94.485-94.485C350.487,203.821,308.183,161.519,256.001,161.519z M256.001,313.463
	c-31.735,0-57.459-25.725-57.459-57.459c0-31.735,25.724-57.459,57.459-57.459c31.737,0,57.462,25.724,57.462,57.459
	C313.463,287.739,287.739,313.463,256.001,313.463z"/>
<path d="M507.931,209.726c-1.013-5.339-4.018-9.907-8.491-12.895c-4.587-3.063-10.116-4.064-15.566-2.815l-34.853,7.973
	c-4.369-15.651-10.626-30.672-18.676-44.829l30.233-19.109c4.723-2.98,7.91-7.602,8.974-13.016
	c1.038-5.278-0.077-10.627-3.138-15.111c-1.452-2.479-9.003-14.552-29.392-34.938c-20.544-20.548-33.156-28.413-35.602-29.851
	c-4.491-3.057-9.847-4.162-15.12-3.11c-5.411,1.079-10.027,4.281-13.001,9.018l-19.018,30.295
	c-14.193-8.006-29.237-14.216-44.891-18.531l7.862-34.865c1.231-5.452,0.216-10.978-2.86-15.558
	c-2.997-4.463-7.563-7.454-12.896-8.459c-2.777-0.726-16.655-3.923-45.492-3.923c-29.054,0-43.535,3.357-46.282,4.07
	c-5.338,1.014-9.905,4.019-12.892,8.493c-3.063,4.589-4.064,10.117-2.817,15.566l7.974,34.856
	c-15.648,4.368-30.668,10.624-44.827,18.671l-19.11-30.238c-2.985-4.722-7.611-7.908-13.024-8.971
	c-5.275-1.036-10.619,0.077-15.099,3.135c-2.472,1.448-14.548,9.001-34.946,29.397c-20.544,20.544-28.409,33.158-29.847,35.604
	c-3.057,4.493-4.161,9.847-3.109,15.124c1.077,5.412,4.28,10.029,9.016,12.999l30.299,19.013
	c-8.004,14.191-14.214,29.235-18.53,44.89l-34.872-7.864c-5.451-1.229-10.975-0.212-15.555,2.865
	c-4.46,2.997-7.452,7.562-8.457,12.892C3.198,213.28,0,227.16,0,256.004c0,29.059,3.357,43.538,4.069,46.28
	c1.015,5.338,4.021,9.904,8.496,12.892c4.589,3.062,10.115,4.061,15.566,2.815l34.853-7.975
	c4.368,15.644,10.625,30.665,18.674,44.828l-30.237,19.109c-4.723,2.985-7.909,7.611-8.972,13.023
	c-1.036,5.275,0.078,10.621,3.138,15.103c1.452,2.477,9.002,14.549,29.396,34.944c20.54,20.539,33.153,28.405,35.601,29.844
	c4.493,3.057,9.848,4.161,15.122,3.112c5.412-1.078,10.028-4.28,13-9.016l19.015-30.297c14.187,8.004,29.228,14.214,44.89,18.532
	l-7.861,34.863c-1.231,5.453-0.215,10.978,2.862,15.558c2.998,4.463,7.565,7.453,12.897,8.457
	c2.783,0.728,16.647,3.923,45.455,3.923h0.04c29.054,0,43.532-3.355,46.278-4.067c5.338-1.013,9.905-4.019,12.892-8.493
	c3.065-4.589,4.064-10.118,2.817-15.567l-7.974-34.852c15.643-4.366,30.665-10.624,44.829-18.672l19.106,30.226
	c2.981,4.726,7.603,7.913,13.016,8.977c5.274,1.04,10.625-0.075,15.112-3.138c2.479-1.452,14.552-9.002,34.942-29.393
	c20.545-20.545,28.41-33.158,29.847-35.601c3.057-4.493,4.161-9.847,3.11-15.122c-1.077-5.409-4.279-10.024-9.015-12.998
	l-30.297-19.017c8.004-14.188,14.215-29.233,18.531-44.89l34.862,7.858c5.448,1.236,10.971,0.219,15.552-2.855
	c4.466-2.998,7.459-7.568,8.465-12.902c0.727-2.781,3.923-16.658,3.923-45.491C512.002,226.957,508.645,212.476,507.931,209.726z
	 M492.557,297.477c-0.092,0.31-0.164,0.625-0.217,0.944c-0.188,1.124-0.779,2.07-1.664,2.664c-0.88,0.592-1.971,0.78-3.082,0.528
	l-42.478-9.575c-4.298-0.966-8.571,1.71-9.57,6c-4.505,19.325-12.099,37.72-22.57,54.677c-2.314,3.748-1.172,8.661,2.56,11.002
	l36.902,23.163c0.963,0.605,1.609,1.51,1.815,2.551c0.207,1.041-0.041,2.124-0.699,3.053c-0.159,0.224-0.325,0.487-0.46,0.728
	c-0.065,0.115-6.799,11.859-27.413,32.472c-20.557,20.557-31.666,26.875-31.738,26.915c-0.283,0.155-0.557,0.326-0.82,0.513
	c-0.93,0.662-2.017,0.914-3.066,0.709c-0.735-0.145-1.775-0.574-2.553-1.805l-23.277-36.826c-2.354-3.723-7.273-4.853-11.01-2.525
	c-16.925,10.523-35.297,18.173-54.605,22.74c-4.286,1.013-6.952,5.295-5.97,9.59l9.714,42.459c0.253,1.106,0.068,2.203-0.521,3.086
	c-0.589,0.882-1.531,1.473-2.65,1.663c-0.273,0.047-0.576,0.115-0.841,0.19c-0.128,0.036-13.194,3.578-42.345,3.578h-0.036
	c-29.046,0-41.359-3.388-41.439-3.41c-0.311-0.091-0.626-0.164-0.947-0.217c-1.122-0.188-2.067-0.778-2.66-1.661
	c-0.592-0.882-0.78-1.977-0.53-3.087l9.577-42.474c0.968-4.297-1.71-8.57-6-9.57c-19.33-4.509-37.726-12.102-54.677-22.571
	c-1.313-0.811-2.767-1.197-4.205-1.197c-2.668,0-5.276,1.332-6.797,3.756l-23.162,36.905c-0.604,0.962-1.509,1.607-2.551,1.813
	c-1.042,0.207-2.125-0.041-3.052-0.698c-0.226-0.159-0.49-0.326-0.731-0.462c-0.115-0.065-11.862-6.798-32.471-27.408
	c-20.558-20.561-26.877-31.671-26.918-31.742c-0.154-0.283-0.325-0.556-0.512-0.819c-0.663-0.928-0.914-2.016-0.709-3.062
	c0.204-1.043,0.845-1.951,1.804-2.558l36.832-23.276c3.723-2.353,4.851-7.27,2.525-11.011
	c-10.524-16.921-18.175-35.293-22.742-54.603c-1.013-4.286-5.297-6.947-9.59-5.97l-42.46,9.715
	c-1.106,0.252-2.202,0.069-3.085-0.521s-1.475-1.533-1.666-2.653c-0.046-0.271-0.115-0.575-0.19-0.84
	c-0.033-0.133-3.577-13.197-3.577-42.346c0-29.075,3.388-41.4,3.41-41.481c0.091-0.309,0.164-0.623,0.217-0.941
	c0.188-1.122,0.777-2.068,1.662-2.662c0.882-0.593,1.976-0.782,3.087-0.532l42.479,9.578c4.289,0.965,8.569-1.71,9.57-6
	c4.506-19.321,12.099-37.718,22.569-54.679c2.313-3.748,1.17-8.66-2.561-11.001l-36.907-23.161c-0.961-0.603-1.605-1.508-1.813-2.55
	c-0.207-1.042,0.041-2.126,0.698-3.053c0.159-0.226,0.326-0.49,0.462-0.73c0.065-0.117,6.798-11.863,27.41-32.475
	c20.559-20.556,31.672-26.878,31.744-26.919c0.282-0.155,0.555-0.325,0.816-0.512c0.927-0.66,2.016-0.913,3.06-0.705
	c1.044,0.204,1.953,0.847,2.56,1.805l23.277,36.832c2.353,3.723,7.27,4.847,11.011,2.525c16.915-10.521,35.286-18.171,54.601-22.74
	c4.286-1.014,6.952-5.295,5.97-9.59l-9.714-42.462c-0.253-1.106-0.068-2.202,0.521-3.085c0.59-0.883,1.531-1.474,2.651-1.664
	c0.273-0.047,0.577-0.117,0.843-0.191c0.128-0.035,13.193-3.58,42.346-3.58c29.071,0,41.397,3.388,41.476,3.41
	c0.309,0.091,0.623,0.164,0.941,0.217c1.123,0.188,2.068,0.778,2.663,1.662c0.593,0.882,0.78,1.979,0.53,3.089l-9.577,42.477
	c-0.968,4.297,1.711,8.571,6.001,9.571c19.318,4.502,37.714,12.095,54.678,22.568c3.749,2.314,8.659,1.172,11.001-2.56l23.165-36.9
	c0.605-0.964,1.511-1.61,2.553-1.816c1.042-0.206,2.124,0.041,3.051,0.698c0.224,0.16,0.488,0.326,0.73,0.462
	c0.115,0.066,11.858,6.797,32.471,27.414c20.555,20.551,26.874,31.663,26.914,31.733c0.155,0.284,0.327,0.557,0.514,0.821
	c0.662,0.928,0.913,2.017,0.708,3.065c-0.204,1.041-0.843,1.945-1.802,2.551l-36.834,23.279c-3.724,2.354-4.851,7.272-2.524,11.012
	c10.522,16.912,18.174,35.284,22.744,54.602c1.014,4.286,5.295,6.946,9.589,5.97l42.46-9.712c1.11-0.252,2.203-0.068,3.085,0.519
	c0.881,0.589,1.472,1.531,1.662,2.651c0.047,0.274,0.117,0.578,0.191,0.844c0.035,0.129,3.581,13.192,3.579,42.342
	C495.967,285.074,492.578,297.398,492.557,297.477z M256.002,153.501c-56.519,0-102.502,45.983-102.502,102.502
	c0,56.52,45.983,102.503,102.502,102.503s102.502-45.982,102.502-102.503C358.504,199.484,312.521,153.501,256.002,153.501z
	 M256.002,342.472c-47.678,0-86.468-38.79-86.468-86.469c0-47.678,38.789-86.468,86.468-86.468c47.678,0,86.468,38.79,86.468,86.468
	C342.47,303.682,303.68,342.472,256.002,342.472z M256.002,190.528c-36.104,0-65.477,29.372-65.477,65.476
	c0,36.103,29.372,65.476,65.477,65.476c36.104,0,65.477-29.372,65.477-65.476C321.479,219.901,292.106,190.528,256.002,190.528z
	 M256.002,305.446c-27.263,0-49.444-22.18-49.444-49.443c0-27.263,22.181-49.443,49.444-49.443c27.263,0,49.444,22.18,49.444,49.443
	C305.446,283.267,283.265,305.446,256.002,305.446z"/>
<g>
</g>
<g>
</g>
<g>
</g>
<g>
</g>
<g>
</g>
<g>
</g>
<g>
</g>
<g>
</g>
<g>
</g>
<g>
</g>
<g>
</g>
<g>
</g>
<g>
</g>
<g>
</g>
<g>
</g>
</svg>
