<?xml version="1.0" encoding="iso-8859-1"?>
<!-- Generator: Adobe Illustrator 19.0.0, SVG Export Plug-In . SVG Version: 6.00 Build 0)  -->
<svg version="1.1" id="Capa_1" xmlns="http://www.w3.org/2000/svg" xmlns:xlink="http://www.w3.org/1999/xlink" x="0px" y="0px"
	 viewBox="0 0 512 512" style="enable-background:new 0 0 512 512;" xml:space="preserve">
<rect x="64" style="fill:#FFC107;" width="384" height="96"/>
<polygon style="fill:#FFA000;" points="480,96 32,96 96,48 64,0 448,0 416,48 "/>
<path style="fill:#FFC107;" d="M32,96v352c0,35.296,28.704,64,64,64h320c35.296,0,64-28.704,64-64V96H32z"/>
<path style="fill:#455A64;" d="M256,384c-70.592,0-128-57.408-128-128v-48c0-8.832,7.168-16,16-16s16,7.168,16,16v48
	c0,52.928,43.072,96,96,96s96-43.072,96-96v-48c0-8.832,7.168-16,16-16s16,7.168,16,16v48C384,326.592,326.592,384,256,384z"/>
<g>
</g>
<g>
</g>
<g>
</g>
<g>
</g>
<g>
</g>
<g>
</g>
<g>
</g>
<g>
</g>
<g>
</g>
<g>
</g>
<g>
</g>
<g>
</g>
<g>
</g>
<g>
</g>
<g>
</g>
</svg>
