<?xml version="1.0" encoding="iso-8859-1"?>
<!-- Generator: Adobe Illustrator 19.0.0, SVG Export Plug-In . SVG Version: 6.00 Build 0)  -->
<svg version="1.1" id="Capa_1" xmlns="http://www.w3.org/2000/svg" xmlns:xlink="http://www.w3.org/1999/xlink" x="0px" y="0px"
	 viewBox="0 0 512 512" style="enable-background:new 0 0 512 512;" xml:space="preserve">
<path style="fill:#303C42;" d="M394.667,117.333h-64c-5.896,0-10.667,4.771-10.667,10.667v64c0,5.896,4.771,10.667,10.667,10.667
	H352v18.51c0,11.177-5.958,21.688-15.542,27.438l-69.792,41.879V106.667h42.667c3.875,0,7.448-2.104,9.333-5.5
	c1.875-3.385,1.771-7.531-0.292-10.823L265.042,5.01c-1.947-3.113-5.491-5.009-9.036-5.01c-3.549-0.002-7.098,1.894-9.047,5.01
	l-53.333,85.333c-2.063,3.292-2.167,7.438-0.292,10.823c1.885,3.396,5.458,5.5,9.333,5.5h42.667v248.54l-58.208-32.342
	c-10.156-5.635-16.458-16.354-16.458-27.969v-18.642c24.314-4.956,42.667-26.5,42.667-52.254c0-29.406-23.927-53.333-53.333-53.333
	S106.667,194.594,106.667,224c0,25.754,18.353,47.298,42.667,52.254v18.642c0,19.365,10.51,37.229,27.438,46.615l68.563,38.095
	v26.807c-24.314,4.956-42.667,26.5-42.667,52.254C202.667,488.073,226.594,512,256,512s53.333-23.927,53.333-53.333
	c0-25.754-18.353-47.298-42.667-52.254v-91.04l80.771-48.466c15.969-9.573,25.896-27.104,25.896-45.729v-18.51h21.333
	c5.896,0,10.667-4.771,10.667-10.667v-64C405.333,122.104,400.563,117.333,394.667,117.333z"/>
<linearGradient id="SVGID_1_" gradientUnits="userSpaceOnUse" x1="-41.2799" y1="637.4461" x2="-28.8393" y2="631.6473" gradientTransform="matrix(21.3333 0 0 -21.3333 996.3334 13791.667)">
	<stop  offset="0" style="stop-color:#FFFFFF;stop-opacity:0.2"/>
	<stop  offset="1" style="stop-color:#FFFFFF;stop-opacity:0"/>
</linearGradient>
<path style="fill:url(#SVGID_1_);" d="M394.667,117.333h-64c-5.896,0-10.667,4.771-10.667,10.667v64
	c0,5.896,4.771,10.667,10.667,10.667H352v18.51c0,11.177-5.958,21.688-15.542,27.438l-69.792,41.879V106.667h42.667
	c3.875,0,7.448-2.104,9.333-5.5c1.875-3.385,1.771-7.531-0.292-10.823L265.042,5.01c-1.947-3.113-5.491-5.009-9.036-5.01
	c-3.549-0.002-7.098,1.894-9.047,5.01l-53.333,85.333c-2.063,3.292-2.167,7.438-0.292,10.823c1.885,3.396,5.458,5.5,9.333,5.5
	h42.667v248.54l-58.208-32.342c-10.156-5.635-16.458-16.354-16.458-27.969v-18.642c24.314-4.956,42.667-26.5,42.667-52.254
	c0-29.406-23.927-53.333-53.333-53.333S106.667,194.594,106.667,224c0,25.754,18.353,47.298,42.667,52.254v18.642
	c0,19.365,10.51,37.229,27.438,46.615l68.563,38.095v26.807c-24.314,4.956-42.667,26.5-42.667,52.254
	C202.667,488.073,226.594,512,256,512s53.333-23.927,53.333-53.333c0-25.754-18.353-47.298-42.667-52.254v-91.04l80.771-48.466
	c15.969-9.573,25.896-27.104,25.896-45.729v-18.51h21.333c5.896,0,10.667-4.771,10.667-10.667v-64
	C405.333,122.104,400.563,117.333,394.667,117.333z"/>
<g>
</g>
<g>
</g>
<g>
</g>
<g>
</g>
<g>
</g>
<g>
</g>
<g>
</g>
<g>
</g>
<g>
</g>
<g>
</g>
<g>
</g>
<g>
</g>
<g>
</g>
<g>
</g>
<g>
</g>
</svg>
